# xmcd CD database file
#
# Track frame offsets:
#	150
#	22760
#	47267
#	65841
#	95802
#	116330
#	135986
#	156364
#	176264
#	198115
#	218237
#	237543
#	263463
#	303525
#	359175
#
# Disc length: 4795 seconds
#
# Revision: 14
# Processed by: cddbd v1.5.2PL0 Copyright (c) Steve Scherf et al.
# Submitted via: CDex 1.70beta2
#
DISCID=d112b90f
DTITLE=尾崎豊 - 13/71
DYEAR=2004
DGENRE=J-Pop
TTITLE0=十七歳の地図
TTITLE1=DRIVING ALL NIGHT
TTITLE2=Scrap Alley
TTITLE3=卒業
TTITLE4=OH MY LITTLE GIRL
TTITLE5=禁猟区
TTITLE6=闇の告白
TTITLE7=はじまりさえ歌えない
TTITLE8=群衆の中の猫
TTITLE9=音のない部屋
TTITLE10=I LOVE YOU
TTITLE11=シェリー
TTITLE12=15の夜 (LIVE)
TTITLE13=DATA
TTITLE14=DATA
EXTD=YEAR: 2004
EXTT0=
EXTT1=
EXTT2=
EXTT3=
EXTT4=
EXTT5=
EXTT6=
EXTT7=
EXTT8=
EXTT9=
EXTT10=
EXTT11=
EXTT12=
EXTT13=
EXTT14=
PLAYORDER=
